<svg width="75" height="60" viewBox="0 0 75 60" fill="none" xmlns="http://www.w3.org/2000/svg">
<g clip-path="url(#clip0_28_32)">
<path d="M74.9058 29.6594L74.7142 24.7715V24.7677C74.7105 24.6959 74.6879 24.6278 74.6541 24.5674C74.6429 24.5485 74.6316 24.5371 74.6203 24.522C74.5903 24.4804 74.5527 24.4464 74.5076 24.4161C74.4964 24.4086 74.4889 24.3935 74.4776 24.3897C74.4701 24.3859 74.4588 24.3859 74.4513 24.3821C74.4363 24.3746 74.4288 24.367 74.4137 24.3594L71.7244 23.4144L72.1038 22.458C72.1226 22.4088 72.1338 22.3559 72.1338 22.303L72.3404 15.4342C72.3404 15.3889 72.3329 15.3435 72.3216 15.3019C72.3179 15.2944 72.3216 15.2868 72.3179 15.2792C72.2991 15.2263 72.2728 15.1772 72.239 15.1356C72.2277 15.1243 72.2127 15.1129 72.2014 15.1016C72.1751 15.0751 72.1451 15.0487 72.115 15.0298C72.0963 15.0184 72.0775 15.0146 72.0549 15.0033C72.0324 14.9919 72.0099 14.9806 71.9873 14.973C71.9761 14.9693 71.9648 14.973 71.9535 14.9693C71.9423 14.9693 71.9385 14.9617 71.9272 14.9617L69.5384 14.7462L74.5565 11.9828C74.6804 11.9148 74.7668 11.79 74.7856 11.6464C74.8044 11.5027 74.7593 11.3591 74.6579 11.2608L73.8879 10.4896L74.3461 9.30638C74.4175 9.12114 74.3612 8.90945 74.2072 8.78471L73.7076 8.38022L74.2823 7.32557C74.3311 7.23485 74.3424 7.13278 74.3274 7.0345C74.3724 6.92487 74.3762 6.79634 74.3236 6.67915L74.087 6.14235L74.3424 6.02894C74.3612 6.02138 74.3724 6.00626 74.3875 5.9987C74.4137 5.98358 74.44 5.96468 74.4626 5.94578C74.4851 5.92688 74.5001 5.9042 74.5189 5.88151C74.5377 5.85883 74.5527 5.83615 74.564 5.80969C74.579 5.77945 74.5865 5.75299 74.5903 5.71896C74.594 5.70006 74.6053 5.68494 74.6053 5.66604C74.6053 5.6547 74.6015 5.64714 74.6015 5.6358C74.6053 5.60556 74.5978 5.57532 74.594 5.54507C74.5903 5.51483 74.5828 5.48459 74.5753 5.45813C74.5715 5.44679 74.5715 5.43923 74.5677 5.42789C74.5602 5.40898 74.5452 5.40142 74.5377 5.38252C74.5227 5.35606 74.5039 5.3296 74.4851 5.30692C74.4663 5.28424 74.4438 5.26912 74.4213 5.25021C74.3987 5.23131 74.3762 5.21619 74.3499 5.20485C74.3198 5.18973 74.2936 5.18217 74.2598 5.17461C74.241 5.17083 74.2259 5.15949 74.2072 5.15949L32.0235 0.407682C31.9559 0.400121 31.8883 0.407682 31.8244 0.430363L9.1004 8.40669H9.09665H9.09289C9.0328 8.42937 8.98021 8.45961 8.93889 8.50119C8.93138 8.50875 8.93138 8.51631 8.92387 8.52009C8.88631 8.55789 8.85626 8.59948 8.83372 8.64484C8.82621 8.66375 8.82246 8.68643 8.8187 8.70533C8.80743 8.74313 8.79616 8.78093 8.79616 8.81874C8.79616 8.82252 8.79241 8.8263 8.79241 8.83386V15.5022L7.15481 15.3358C7.02711 15.3245 6.89941 15.3661 6.8055 15.453C6.7116 15.54 6.65526 15.6609 6.65526 15.7895V22.11L3.74065 24.3215C3.73313 24.3253 3.72938 24.3328 3.72562 24.3404C3.71811 24.3442 3.7106 24.3479 3.70684 24.3517C3.69182 24.3668 3.68431 24.3857 3.66928 24.4046C3.64675 24.4311 3.62797 24.4538 3.61294 24.484C3.60168 24.5067 3.59416 24.5332 3.58665 24.5559C3.57538 24.5899 3.56787 24.6201 3.56787 24.6541C3.56787 24.6655 3.56036 24.673 3.56036 24.6844V32.7023C3.56036 32.9405 3.74441 33.137 3.97727 33.1559L6.73044 33.3639L0.367753 36.2141C0.348973 36.2255 0.333949 36.2406 0.315169 36.2519C0.300145 36.2595 0.285121 36.2633 0.270097 36.2708C0.262585 36.2784 0.258829 36.2897 0.251318 36.2935C0.22127 36.3238 0.194977 36.354 0.172442 36.3918C0.161173 36.4107 0.146149 36.4258 0.138637 36.4485C0.116101 36.4977 0.108588 36.5506 0.104833 36.6035C0.104833 36.6148 0.0973206 36.6224 0.0973206 36.63V45.0523C0.0973206 45.2602 0.236292 45.4379 0.431609 45.4908L52.6364 59.557C52.674 59.5683 52.7153 59.5721 52.7528 59.5721C52.843 59.5721 52.9294 59.5381 53.0045 59.4851C53.012 59.4776 53.0233 59.4814 53.0308 59.4738C53.0383 59.47 53.0383 59.4625 53.0458 59.4549C53.0533 59.4473 53.0608 59.4473 53.0684 59.4398L73.276 39.4085C73.4526 39.2308 73.4563 38.9435 73.2798 38.7658C73.2648 38.7469 73.2422 38.7394 73.2235 38.728L72.6939 38.0778L73.3812 35.7719C73.4037 35.7001 73.4037 35.6207 73.3775 35.5489L72.9643 34.2561L73.385 32.5776C73.415 32.5511 73.4376 32.5133 73.4601 32.4793C73.4676 32.468 73.4751 32.4604 73.4826 32.4491C73.5014 32.4113 73.5089 32.3697 73.5164 32.3281C73.5202 32.313 73.5277 32.2979 73.5277 32.2827C73.5277 32.2676 73.5239 32.2601 73.5239 32.2449C73.5239 32.1996 73.5239 32.1504 73.5089 32.1089C73.4939 32.0597 73.4676 32.0181 73.4413 31.9803C73.4338 31.9728 73.4338 31.9614 73.4263 31.9539C73.3887 31.9085 73.3399 31.8707 73.2873 31.8442C73.2347 31.8178 73.1784 31.7989 73.1183 31.7951L72.4122 31.7308L74.7146 30.0373C74.8348 29.9466 74.9061 29.8029 74.8986 29.6517L74.9058 29.6594ZM72.2127 34.1881V34.1957L54.0377 49.9292C53.91 50.0388 53.8987 50.2316 54.0077 50.3564C54.0678 50.4244 54.1504 50.4622 54.2368 50.4622C54.3044 50.4622 54.3757 50.4396 54.4321 50.3904L72.3667 34.861L72.6146 35.636L54.1011 52.1892C53.9772 52.2989 53.9659 52.4916 54.0748 52.6164C54.1349 52.6844 54.2176 52.7185 54.3002 52.7185C54.3716 52.7185 54.4429 52.692 54.4993 52.6429L72.3175 36.709L71.9119 38.0623C71.9081 38.0736 71.9119 38.085 71.9081 38.0963L54.1947 54.8053C54.0745 54.9187 54.067 55.1115 54.1796 55.2325C54.2397 55.2968 54.3186 55.327 54.4013 55.327C54.4764 55.327 54.5477 55.3005 54.6078 55.2438L72.1896 38.6635L72.4375 38.9697L53.1807 58.0604L52.9892 49.5889L72.4036 33.4053L72.2083 34.1803L72.2127 34.1881ZM37.9617 54.6771V46.2812L42.3826 47.3624V55.8642L37.9617 54.6734V54.6771ZM17.6608 26.182V33.285L13.2399 32.9523V25.8493L17.6608 26.182ZM11.5836 23.8118V16.7238L14.4043 17.0225V24.0953L11.5836 23.8118ZM9.68674 9.345L12.6502 9.60205V15.9188L9.68674 15.605V9.34113V9.345ZM71.2137 15.8205L65.4219 28.8735L55.1008 28.0947L68.5921 20.1487C68.7273 20.0693 68.8137 19.9219 68.8175 19.7631L68.9001 15.6124L71.2137 15.8205ZM71.285 20.3682L66.3083 31.8862C66.2407 32.0412 66.3121 32.2189 66.4661 32.2869C66.5036 32.3058 66.5449 32.3134 66.5862 32.3134C66.7027 32.3134 66.8154 32.2453 66.8642 32.1319L71.2362 22.0045L71.2287 22.1935L66.1581 34.9939V29.4444L71.364 17.7106L71.3527 18.047L66.2708 29.7925C66.2032 29.9475 66.2745 30.1252 66.4248 30.1932C66.4623 30.2121 66.5037 30.2197 66.545 30.2197C66.6614 30.2197 66.7703 30.1516 66.8229 30.0382L71.3039 19.6843L71.285 20.3682ZM69.2944 29.5391L73.8804 26.7039L73.8992 27.1726L68.9112 30.503L69.2943 29.5353L69.2944 29.5391ZM73.8542 26.0084L69.6662 28.5941L69.8916 28.0233L73.8354 25.585L73.8504 26.0084L73.8542 26.0084ZM48.8205 39.9874L30.484 35.1676L53.7792 36.9216L48.825 39.9874H48.8205ZM49.3464 40.7321L55.3184 37.0388L56.4978 37.1295L50.259 41.1857C50.1201 41.2764 50.0788 41.4655 50.1689 41.6053C50.2252 41.6961 50.3229 41.7452 50.4243 41.7452C50.4806 41.7452 50.537 41.7301 50.5896 41.6961L57.5006 37.2014L58.7514 37.2959L50.4769 42.8226C50.3379 42.9171 50.3003 43.1023 50.3905 43.2422C50.4468 43.3291 50.5445 43.3782 50.6421 43.3782C50.6985 43.3782 50.7586 43.3631 50.8074 43.3291L59.7279 37.3715L60.9186 37.4622L50.5109 44.7657C50.3757 44.8602 50.3419 45.053 50.4358 45.1891C50.4959 45.276 50.5898 45.3176 50.6836 45.3176C50.7437 45.3176 50.8038 45.2987 50.8564 45.2647L61.8689 37.5378L62.9131 37.6172L49.3506 47.6043V40.7393L49.3464 40.7321ZM18.5656 33.3568V26.2538L51.9637 28.7715L53.5187 28.9265C53.5337 28.9303 53.5487 28.9303 53.5637 28.9303H53.5675C53.6163 28.9303 53.6614 28.9189 53.7065 28.9038L65.2565 29.7733V36.8763L18.569 33.3569L18.5656 33.3568ZM67.9944 15.6046L67.9832 16.1036L55.7908 22.8589C55.6068 22.961 55.543 23.1915 55.6444 23.373C55.712 23.4978 55.8434 23.5696 55.9749 23.5696C56.035 23.5696 56.0989 23.5544 56.1552 23.5204L67.9638 16.9731L67.9488 17.7178L55.7565 24.4731C55.5725 24.5752 55.5086 24.8058 55.61 24.9872C55.6776 25.112 55.8091 25.1838 55.9406 25.1838C56.0007 25.1838 56.0645 25.1687 56.1208 25.1346L67.9295 18.5873L67.9107 19.4794L54.0059 27.6712V21.1919L57.0746 21.517C57.0896 21.5207 57.1046 21.5207 57.1234 21.5207H57.1271C57.1948 21.5207 57.2586 21.5018 57.3187 21.4716C57.3262 21.4678 57.3337 21.4678 57.345 21.464L67.9931 15.5971L67.9944 15.6046ZM56.7117 20.568L51.0514 19.9707V12.9357L57.2075 13.4688L56.7117 20.568ZM50.1462 19.8763L46.4879 19.4907V12.5388L50.1462 12.8563V19.8763ZM45.5827 19.3962L16.451 16.3228V9.93416L45.5827 12.4632V19.3962ZM15.5462 16.2284L13.5592 16.0167V9.68095L15.5462 9.85484V16.2284ZM15.3095 17.1205L53.1134 21.1087V27.9471L52.0429 27.8677L15.3131 24.1895V17.1205L15.3095 17.1205ZM25.4653 34.7934L48.4441 40.8342V47.8995L9.00569 36.7328V33.5535L25.4653 34.7934ZM8.43165 37.5152L24.1509 41.9683L1.94126 36.5248L8.09732 33.7652V37.0767C8.09732 37.2808 8.23253 37.4585 8.42785 37.5152L8.43165 37.5152ZM12.244 39.9837V47.752L7.82309 46.5612V38.8987L12.244 39.9798V39.9837ZM13.1492 40.2067L37.0597 46.0661V54.4393L13.1492 47.9978V40.2067ZM64.3059 37.7231L65.6769 37.8252H65.7031L52.4224 48.8942L49.9509 48.2894L64.3067 37.7197L64.3059 37.7231ZM68.5239 31.5046L73.9325 27.8907L73.9513 28.3216L68.1821 32.3703L68.5276 31.5008L68.5239 31.5046ZM73.2189 24.9119L70.4619 26.6167L71.3934 24.2692L73.2189 24.9119ZM73.3466 6.72895L59.1225 13.473C58.9347 13.5637 58.8521 13.7867 58.9422 13.9795C59.0061 14.1156 59.1413 14.1988 59.284 14.1988C59.3366 14.1988 59.393 14.1874 59.4455 14.1647L73.0532 7.71183L72.8091 8.1579L58.8514 15.0606C58.6636 15.1551 58.5885 15.3819 58.6786 15.5672C58.7425 15.7033 58.8777 15.7789 59.0167 15.7789C59.073 15.7789 59.1294 15.7675 59.1819 15.7411L72.9291 8.94045L73.1582 9.12568L58.7312 16.5123C58.5472 16.6068 58.4721 16.8374 58.566 17.0226C58.6336 17.1549 58.765 17.2305 58.904 17.2305C58.9604 17.2305 59.0204 17.2154 59.073 17.1889L73.1134 9.99889L72.9557 10.4072L58.548 18.2399C58.3639 18.3382 58.2963 18.5687 58.394 18.754C58.4616 18.8825 58.593 18.9543 58.7245 18.9543C58.7846 18.9543 58.8485 18.9392 58.9048 18.909L73.2231 11.1254L73.5912 11.4959L67.8895 14.6373C67.7768 14.6524 67.6792 14.7053 67.6116 14.7923L57.6395 20.285L58.124 13.3747L73.2528 6.54003L73.3392 6.73661L73.3466 6.72895ZM32.0196 1.34211L72.4571 5.89727L57.6168 12.5997L11.3879 8.58508L32.0235 1.34211H32.0196ZM7.55715 16.316L9.19474 16.4785L10.6859 16.6335V23.729L7.55715 23.4153V16.3122V16.316ZM7.06136 24.2848L10.8888 24.6666C10.9601 24.7157 11.0428 24.7535 11.1404 24.7535C11.208 24.7535 11.2681 24.7384 11.3245 24.7119L14.5622 25.037C14.5697 25.0408 14.5734 25.0446 14.5809 25.0484L5.24353 24.3452L6.652 23.2754V23.8311C6.652 24.0655 6.82849 24.2621 7.06136 24.2848ZM4.46598 25.1996L12.3461 25.7931V32.8961L4.46598 32.3026V25.1996ZM1.00665 37.2363L6.92607 38.688V46.3278L1.00665 44.7326V37.2363ZM43.2922 56.1267V47.6022L52.0963 49.7608L52.2916 58.5498L43.2921 56.1229L43.2922 56.1267ZM71.9576 32.6289L66.1771 37.4488L66.7856 35.9103L71.3191 32.5723L71.9576 32.6289ZM67.4166 34.3149L67.7771 33.4077L73.982 29.0528L73.9971 29.4687L67.4166 34.3149ZM42.1569 44.8885V40.9419C42.1569 40.6887 42.3598 40.4845 42.6114 40.4845C42.8631 40.4845 43.0659 40.6887 43.0659 40.9419V44.8885C43.0659 45.1418 42.8631 45.3459 42.6114 45.3459C42.3598 45.3459 42.1569 45.1418 42.1569 44.8885ZM40.0686 44.2156V40.2691C40.0686 40.0158 40.2714 39.8116 40.5231 39.8116C40.7747 39.8116 40.9775 40.0158 40.9775 40.2691V44.2156C40.9775 44.4689 40.7747 44.673 40.5231 44.673C40.2714 44.673 40.0686 44.4689 40.0686 44.2156ZM27.3022 7.59237L32.5531 8.29928C32.5719 8.30306 32.5944 8.30306 32.6132 8.30306C32.6808 8.30306 32.7484 8.28794 32.8085 8.25769L39.9036 4.82521C40.0839 4.73826 40.1853 4.54547 40.1552 4.34512C40.1252 4.14856 39.9712 3.99356 39.7721 3.96332L35.5128 3.34336C35.4339 3.33202 35.3513 3.33958 35.2762 3.37361L27.1933 6.71532C27.0055 6.7947 26.889 6.99128 26.9153 7.1954C26.9416 7.39954 27.0994 7.56209 27.3022 7.58855L27.3022 7.59237ZM35.5016 4.26953L38.1683 4.65889L32.5342 7.38444L29.0938 6.91947L35.4978 4.27328L35.5016 4.26953Z" fill="#343C3F"/>
</g>
<defs>
<clipPath id="clip0_28_32">
<rect width="75" height="60" fill="white"/>
</clipPath>
</defs>
</svg>
