<svg width="51" height="50" viewBox="0 0 51 50" fill="none" xmlns="http://www.w3.org/2000/svg">
<g clip-path="url(#clip0_47_7)">
<path fill-rule="evenodd" clip-rule="evenodd" d="M25.424 0C11.3652 0 0 11.4583 0 25.6339C0 36.9651 7.28207 46.5568 17.3842 49.9516C18.6473 50.2068 19.1099 49.4 19.1099 48.7214C19.1099 48.1271 19.0683 46.0901 19.0683 43.9677C11.9959 45.4958 10.5232 40.912 10.5232 40.912C9.3866 37.9411 7.70256 37.1776 7.70256 37.1776C5.38779 35.6073 7.87117 35.6073 7.87117 35.6073C10.4389 35.7771 11.7862 38.2385 11.7862 38.2385C14.0588 42.1427 17.7209 41.0396 19.1942 40.3604C19.4045 38.7052 20.0784 37.5594 20.7939 36.9229C15.1532 36.3286 9.21851 34.1219 9.21851 24.2755C9.21851 21.4745 10.2281 19.1828 11.8278 17.4005C11.5754 16.7641 10.6913 14.1323 12.0808 10.6099C12.0808 10.6099 14.2274 9.93073 19.0678 13.2411C21.1401 12.68 23.2772 12.3946 25.424 12.3922C27.5707 12.3922 29.759 12.6896 31.7798 13.2411C36.6206 9.93073 38.7673 10.6099 38.7673 10.6099C40.1568 14.1323 39.2721 16.7641 39.0197 17.4005C40.6616 19.1828 41.6295 21.4745 41.6295 24.2755C41.6295 34.1219 35.6948 36.2859 30.0119 36.9229C30.9383 37.7292 31.7376 39.2568 31.7376 41.676C31.7376 45.1135 31.696 47.8724 31.696 48.7208C31.696 49.4 32.1591 50.2068 33.4217 49.9521C43.5238 46.5562 50.8059 36.9651 50.8059 25.6339C50.8475 11.4583 39.4407 0 25.424 0Z" fill="#24292F"/>
</g>
<defs>
<clipPath id="clip0_47_7">
<rect width="51" height="50" fill="white"/>
</clipPath>
</defs>
</svg>
