<svg width="89" height="60" viewBox="0 0 89 60" fill="none" xmlns="http://www.w3.org/2000/svg">
<g clip-path="url(#clip0_30_54)">
<path d="M45.5988 19.0909C46.8124 19.0909 47.7963 20.0677 47.7963 21.2727C47.7963 22.4777 46.8124 23.4545 45.5988 23.4545C44.3851 23.4545 43.4012 22.4777 43.4012 21.2727C43.4012 20.0677 44.3851 19.0909 45.5988 19.0909ZM45.5988 20.1818C44.9919 20.1818 44.5 20.6702 44.5 21.2727C44.5 21.8752 44.9919 22.3636 45.5988 22.3636C46.2056 22.3636 46.6975 21.8752 46.6975 21.2727C46.6975 20.6702 46.2056 20.1818 45.5988 20.1818Z" fill="#343C3F"/>
<path d="M43.9506 21.8182V20.7273C39.4474 20.7273 35.7099 16.8197 35.7099 12.5454H34.6111C34.6111 17.4099 38.8275 21.8182 43.9506 21.8182Z" fill="#343C3F"/>
<path d="M46.6975 21.8182V20.7273C51.2007 20.7273 54.9383 16.8197 54.9383 12.5454H56.037C56.037 17.4099 51.8206 21.8182 46.6975 21.8182Z" fill="#343C3F"/>
<path d="M35.1605 8.72724C36.3742 8.72724 37.358 9.70408 37.358 10.9091C37.358 12.114 36.3742 13.0909 35.1605 13.0909C33.9468 13.0909 32.963 12.114 32.963 10.9091C32.963 9.70408 33.9468 8.72724 35.1605 8.72724ZM35.1605 9.81815C34.5537 9.81815 34.0617 10.3066 34.0617 10.9091C34.0617 11.5116 34.5537 12 35.1605 12C35.7673 12 36.2593 11.5116 36.2593 10.9091C36.2593 10.3066 35.7673 9.81815 35.1605 9.81815Z" fill="#343C3F"/>
<path d="M55.4877 8.72724C54.274 8.72724 53.2901 9.70408 53.2901 10.9091C53.2901 12.114 54.274 13.0909 55.4877 13.0909C56.7013 13.0909 57.6852 12.114 57.6852 10.9091C57.6852 9.70408 56.7013 8.72724 55.4877 8.72724ZM55.4877 9.81815C56.0945 9.81815 56.5864 10.3066 56.5864 10.9091C56.5864 11.5116 56.0945 12 55.4877 12C54.8808 12 54.3889 11.5116 54.3889 10.9091C54.3889 10.3066 54.8808 9.81815 55.4877 9.81815Z" fill="#343C3F"/>
<path d="M30.7654 21.8182C30.462 21.8182 30.2161 21.574 30.2161 21.2727C30.2161 20.9715 30.462 20.7273 30.7654 20.7273H43.9506C44.254 20.7273 44.5 20.9715 44.5 21.2727C44.5 21.574 44.254 21.8182 43.9506 21.8182H30.7654Z" fill="#343C3F"/>
<path d="M47.2469 21.8182C46.9435 21.8182 46.6975 21.574 46.6975 21.2727C46.6975 20.9715 46.9435 20.7273 47.2469 20.7273H59.8827C60.1861 20.7273 60.4321 20.9715 60.4321 21.2727C60.4321 21.574 60.1861 21.8182 59.8827 21.8182H47.2469Z" fill="#343C3F"/>
<path d="M60.4321 20.7273V21.8182H61.5309V20.7273H60.4321ZM62.6296 19.6364V22.9091H59.3333V19.6364H62.6296Z" fill="#343C3F"/>
<path d="M28.5679 20.7273V21.8182H29.6667V20.7273H28.5679ZM30.7654 19.6364V22.9091H27.4691V19.6364H30.7654Z" fill="#343C3F"/>
<path d="M45.3875 31.7238C45.5227 31.6678 45.6748 31.6678 45.8101 31.7238L48.2927 32.7508L45.5988 27.4015L42.9048 32.7508L45.3875 31.7238ZM41.9644 34.3217C41.4945 34.5161 41.0341 34.0263 41.2617 33.5742L45.1074 25.9379C45.3098 25.5358 45.8877 25.5358 46.0901 25.9379L49.9358 33.5742C50.1635 34.0263 49.703 34.5161 49.2331 34.3217L45.5988 32.8182L41.9644 34.3217Z" fill="#343C3F"/>
<path d="M12.0864 1.09091V40.3636H76.9136V1.09091H12.0864ZM10.9876 0H78.0123V41.4545H10.9876V0Z" fill="#343C3F"/>
<path d="M77.291 41.4546H11.709L2.06732 55.6364H86.9327L77.291 41.4546ZM11.125 40.3636H77.875L89 56.7273H0L11.125 40.3636Z" fill="#343C3F"/>
<path d="M14.2839 3.27273V38.1818H74.716V3.27273H14.2839ZM13.1852 2.18182H75.8148V39.2727H13.1852V2.18182Z" fill="#343C3F"/>
<path d="M1.09877 56.7273V58.9091H87.9012V56.7273H1.09877ZM1.09877 55.6364H87.9012C88.5081 55.6364 89 56.1248 89 56.7273V58.9091C89 59.5116 88.5081 60 87.9012 60H1.09877C0.491934 60 0 59.5116 0 58.9091V56.7273C0 56.1248 0.491934 55.6364 1.09877 55.6364Z" fill="#343C3F"/>
<path d="M35.1605 48V52.3637H54.9383V48H35.1605ZM34.0617 46.9091H56.037V53.4546H34.0617V46.9091Z" fill="#343C3F"/>
<path d="M16.4815 44.7273V43.6364H20.8765V44.7273H16.4815Z" fill="#343C3F"/>
<path d="M23.0741 44.7273V43.6364H27.4691V44.7273H23.0741Z" fill="#343C3F"/>
<path d="M29.6667 44.7273V43.6364H34.0617V44.7273H29.6667Z" fill="#343C3F"/>
<path d="M36.2592 44.7273V43.6364H40.6543V44.7273H36.2592Z" fill="#343C3F"/>
<path d="M42.8519 44.7273V43.6364H47.2469V44.7273H42.8519Z" fill="#343C3F"/>
<path d="M49.4445 44.7273V43.6364H53.8395V44.7273H49.4445Z" fill="#343C3F"/>
<path d="M56.037 44.7273V43.6364H60.4321V44.7273H56.037Z" fill="#343C3F"/>
<path d="M62.6296 44.7273V43.6364H67.0247V44.7273H62.6296Z" fill="#343C3F"/>
<path d="M69.2222 44.7273V43.6364H73.6173V44.7273H69.2222Z" fill="#343C3F"/>
<path d="M2.19754 9.27275C2.19754 8.9715 2.44351 8.72729 2.74692 8.72729C3.05034 8.72729 3.29631 8.9715 3.29631 9.27275V13.6364C3.29631 13.9376 3.05034 14.1818 2.74692 14.1818C2.44351 14.1818 2.19754 13.9376 2.19754 13.6364V9.27275Z" fill="#343C3F"/>
<path d="M6.5926 21.8182C7.19943 21.8182 7.69137 21.3298 7.69137 20.7273C7.69137 20.1248 7.19943 19.6364 6.5926 19.6364C5.98577 19.6364 5.49384 20.1248 5.49384 20.7273C5.49384 21.3298 5.98577 21.8182 6.5926 21.8182Z" fill="#343C3F"/>
<path d="M82.4074 21.8182C83.0143 21.8182 83.5062 21.3298 83.5062 20.7273C83.5062 20.1248 83.0143 19.6364 82.4074 19.6364C81.8006 19.6364 81.3087 20.1248 81.3087 20.7273C81.3087 21.3298 81.8006 21.8182 82.4074 21.8182Z" fill="#343C3F"/>
<path d="M6.5926 27.2727C7.19943 27.2727 7.69137 26.7843 7.69137 26.1818C7.69137 25.5793 7.19943 25.0909 6.5926 25.0909C5.98577 25.0909 5.49384 25.5793 5.49384 26.1818C5.49384 26.7843 5.98577 27.2727 6.5926 27.2727Z" fill="#343C3F"/>
<path d="M82.4074 27.2727C83.0143 27.2727 83.5062 26.7843 83.5062 26.1818C83.5062 25.5793 83.0143 25.0909 82.4074 25.0909C81.8006 25.0909 81.3087 25.5793 81.3087 26.1818C81.3087 26.7843 81.8006 27.2727 82.4074 27.2727Z" fill="#343C3F"/>
<path d="M6.5926 32.7273C7.19943 32.7273 7.69137 32.2389 7.69137 31.6364C7.69137 31.0339 7.19943 30.5455 6.5926 30.5455C5.98577 30.5455 5.49384 31.0339 5.49384 31.6364C5.49384 32.2389 5.98577 32.7273 6.5926 32.7273Z" fill="#343C3F"/>
<path d="M87.9012 27.2727C88.5081 27.2727 89 26.7843 89 26.1818C89 25.5793 88.5081 25.0909 87.9012 25.0909C87.2944 25.0909 86.8025 25.5793 86.8025 26.1818C86.8025 26.7843 87.2944 27.2727 87.9012 27.2727Z" fill="#343C3F"/>
<path d="M87.9012 21.8182C88.5081 21.8182 89 21.3298 89 20.7273C89 20.1248 88.5081 19.6364 87.9012 19.6364C87.2944 19.6364 86.8025 20.1248 86.8025 20.7273C86.8025 21.3298 87.2944 21.8182 87.9012 21.8182Z" fill="#343C3F"/>
<path d="M0.549383 12C0.245967 12 0 11.7558 0 11.4546C0 11.1533 0.245967 10.9091 0.549383 10.9091H4.94444C5.24786 10.9091 5.49383 11.1533 5.49383 11.4546C5.49383 11.7558 5.24786 12 4.94444 12H0.549383Z" fill="#343C3F"/>
</g>
<defs>
<clipPath id="clip0_30_54">
<rect width="89" height="60" fill="white"/>
</clipPath>
</defs>
</svg>
