<svg width="50" height="50" viewBox="0 0 50 50" fill="none" xmlns="http://www.w3.org/2000/svg">
<g clip-path="url(#clip0_47_3)">
<path fill-rule="evenodd" clip-rule="evenodd" d="M5.55556 50H44.4444C47.5127 50 50 47.5127 50 44.4444V5.55556C50 2.48731 47.5127 0 44.4444 0H5.55556C2.48731 0 0 2.48731 0 5.55556V44.4444C0 47.5127 2.48731 50 5.55556 50Z" fill="#007EBB"/>
<path fill-rule="evenodd" clip-rule="evenodd" d="M43.0556 43.0556H35.6358V30.4181C35.6358 26.9533 34.3193 25.017 31.5769 25.017C28.5935 25.017 27.0348 27.032 27.0348 30.4181V43.0556H19.8843V18.9815H27.0348V22.2243C27.0348 22.2243 29.1847 18.246 34.2934 18.246C39.3998 18.246 43.0556 21.3642 43.0556 27.8134V43.0556ZM11.3537 15.8292C8.91809 15.8292 6.94444 13.8401 6.94444 11.3868C6.94444 8.93359 8.91809 6.94446 11.3537 6.94446C13.7893 6.94446 15.7618 8.93359 15.7618 11.3868C15.7618 13.8401 13.7893 15.8292 11.3537 15.8292ZM7.66149 43.0556H15.1176V18.9815H7.66149V43.0556Z" fill="white"/>
</g>
<defs>
<clipPath id="clip0_47_3">
<rect width="50" height="50" fill="white"/>
</clipPath>
</defs>
</svg>
