<svg width="1620" height="1013" viewBox="0 0 1620 1013" fill="none" xmlns="http://www.w3.org/2000/svg">
<g clip-path="url(#clip0_210_690)">
<rect width="1620" height="1013" fill="white"/>
<line y1="848" x2="1138.84" y2="848" stroke="#323232" stroke-width="6"/>
<line x1="1263" y1="848" x2="1340" y2="848" stroke="#323232" stroke-width="6"/>
<line x1="1344" y1="801" x2="1344" y2="894" stroke="#323232" stroke-width="8"/>
<line x1="1149" y1="848" x2="1254.6" y2="848" stroke="#323232" stroke-width="6" stroke-dasharray="8 8"/>
<rect width="280" height="80" transform="translate(0 771)" fill="#323232"/>
<path d="M55.7869 585.545V651H47.8608V593.855H47.4773L31.4972 604.466V596.412L47.8608 585.545H55.7869ZM95.0661 651.895C91.3161 651.895 87.9389 651.149 84.9347 649.658C81.9304 648.166 79.5227 646.121 77.7116 643.521C75.9006 640.922 74.9098 637.96 74.7393 634.636H82.4098C82.7081 637.598 84.0504 640.048 86.4368 641.987C88.8445 643.905 91.7209 644.864 95.0661 644.864C97.7507 644.864 100.137 644.235 102.225 642.978C104.335 641.721 105.986 639.995 107.179 637.8C108.393 635.585 109.001 633.081 109.001 630.29C109.001 627.435 108.372 624.888 107.115 622.651C105.879 620.393 104.175 618.614 102.001 617.314C99.8281 616.014 97.3459 615.354 94.5547 615.332C92.5518 615.311 90.4957 615.62 88.3864 616.259C86.277 616.877 84.5405 617.676 83.1768 618.656L75.7621 617.761L79.7251 585.545H113.731V592.577H86.3729L84.0717 611.881H84.4553C85.7976 610.815 87.4808 609.931 89.505 609.228C91.5291 608.525 93.6385 608.173 95.8331 608.173C99.8388 608.173 103.408 609.132 106.54 611.05C109.693 612.946 112.165 615.545 113.955 618.848C115.766 622.151 116.671 625.922 116.671 630.162C116.671 634.338 115.734 638.067 113.859 641.348C112.005 644.608 109.448 647.186 106.188 649.082C102.928 650.957 99.2209 651.895 95.0661 651.895ZM134.992 642.626C133.416 642.626 132.063 642.062 130.933 640.933C129.804 639.803 129.24 638.45 129.24 636.874C129.24 635.297 129.804 633.944 130.933 632.815C132.063 631.685 133.416 631.121 134.992 631.121C136.569 631.121 137.922 631.685 139.051 632.815C140.181 633.944 140.745 635.297 140.745 636.874C140.745 637.918 140.479 638.876 139.946 639.75C139.435 640.624 138.742 641.327 137.869 641.859C137.017 642.371 136.058 642.626 134.992 642.626ZM134.992 609.516C133.416 609.516 132.063 608.951 130.933 607.822C129.804 606.692 129.24 605.339 129.24 603.763C129.24 602.186 129.804 600.833 130.933 599.704C132.063 598.575 133.416 598.01 134.992 598.01C136.569 598.01 137.922 598.575 139.051 599.704C140.181 600.833 140.745 602.186 140.745 603.763C140.745 604.807 140.479 605.766 139.946 606.639C139.435 607.513 138.742 608.216 137.869 608.749C137.017 609.26 136.058 609.516 134.992 609.516ZM152.618 637.577V631.057L181.383 585.545H186.113V595.645H182.917L161.184 630.034V630.545H199.92V637.577H152.618ZM183.428 651V635.595V632.559V585.545H190.971V651H183.428ZM213.942 651L243.218 593.088V592.577H209.468V585.545H251.4V592.96L222.252 651H213.942Z" fill="black"/>
<circle cx="44.5" cy="44.5" r="494.5" fill="#E3000F"/>
<path d="M139.379 139.636H144.884V163.553C144.884 166.098 144.286 168.353 143.09 170.318C141.895 172.271 140.214 173.81 138.048 174.935C135.881 176.047 133.342 176.604 130.43 176.604C127.53 176.604 124.997 176.047 122.831 174.935C120.665 173.81 118.984 172.271 117.788 170.318C116.593 168.353 115.995 166.098 115.995 163.553V139.636H121.482V163.109C121.482 164.755 121.843 166.217 122.565 167.495C123.299 168.773 124.334 169.78 125.672 170.513C127.009 171.236 128.596 171.597 130.43 171.597C132.277 171.597 133.869 171.236 135.207 170.513C136.556 169.78 137.586 168.773 138.296 167.495C139.018 166.217 139.379 164.755 139.379 163.109V139.636ZM165.058 176.497C163.437 176.473 161.839 176.178 160.264 175.609C158.702 175.041 157.281 174.094 156.003 172.768C154.725 171.443 153.701 169.661 152.931 167.424C152.174 165.187 151.795 162.393 151.795 159.043C151.795 155.871 152.109 153.054 152.736 150.592C153.375 148.129 154.293 146.052 155.488 144.359C156.684 142.655 158.128 141.359 159.82 140.471C161.513 139.583 163.413 139.139 165.52 139.139C167.686 139.139 169.61 139.565 171.291 140.418C172.972 141.27 174.333 142.448 175.374 143.951C176.428 145.454 177.097 147.165 177.381 149.082H171.965C171.598 147.567 170.87 146.33 169.781 145.371C168.692 144.413 167.272 143.933 165.52 143.933C162.857 143.933 160.779 145.093 159.288 147.413C157.808 149.733 157.062 152.959 157.051 157.09H157.317C157.944 156.06 158.714 155.184 159.625 154.462C160.548 153.728 161.578 153.166 162.715 152.776C163.863 152.373 165.07 152.172 166.337 152.172C168.444 152.172 170.35 152.687 172.054 153.717C173.771 154.735 175.138 156.143 176.156 157.942C177.174 159.742 177.683 161.801 177.683 164.121C177.683 166.442 177.156 168.543 176.102 170.425C175.061 172.307 173.593 173.798 171.699 174.899C169.805 175.988 167.592 176.521 165.058 176.497ZM165.041 171.881C166.437 171.881 167.686 171.537 168.787 170.851C169.888 170.164 170.758 169.241 171.397 168.081C172.036 166.921 172.356 165.625 172.356 164.192C172.356 162.796 172.042 161.523 171.415 160.375C170.799 159.227 169.947 158.315 168.858 157.641C167.781 156.966 166.55 156.629 165.165 156.629C164.111 156.629 163.135 156.83 162.235 157.232C161.347 157.635 160.566 158.191 159.892 158.901C159.217 159.612 158.684 160.428 158.294 161.352C157.915 162.263 157.725 163.228 157.725 164.246C157.725 165.607 158.039 166.868 158.666 168.028C159.306 169.188 160.176 170.123 161.276 170.833C162.389 171.531 163.644 171.881 165.041 171.881ZM189.468 171.028L189.202 172.964C189.024 174.384 188.722 175.864 188.296 177.403C187.882 178.953 187.45 180.392 187 181.717C186.562 183.043 186.201 184.097 185.917 184.878H182.153C182.307 184.144 182.52 183.15 182.792 181.895C183.064 180.652 183.33 179.261 183.591 177.722C183.851 176.183 184.047 174.615 184.177 173.017L184.354 171.028H189.468ZM209.541 176V172.023L221.846 159.274C223.159 157.889 224.243 156.676 225.095 155.634C225.959 154.581 226.604 153.58 227.03 152.634C227.456 151.687 227.669 150.68 227.669 149.615C227.669 148.408 227.385 147.366 226.817 146.49C226.249 145.602 225.474 144.922 224.491 144.448C223.509 143.963 222.402 143.72 221.171 143.72C219.869 143.72 218.732 143.987 217.762 144.519C216.791 145.052 216.045 145.804 215.525 146.774C215.004 147.745 214.743 148.881 214.743 150.183H209.505C209.505 147.97 210.014 146.034 211.032 144.377C212.05 142.72 213.447 141.436 215.223 140.524C216.998 139.601 219.016 139.139 221.277 139.139C223.562 139.139 225.574 139.595 227.314 140.506C229.066 141.406 230.433 142.637 231.416 144.2C232.398 145.75 232.89 147.502 232.89 149.455C232.89 150.805 232.635 152.125 232.126 153.415C231.629 154.705 230.759 156.143 229.516 157.729C228.273 159.304 226.545 161.215 224.331 163.464L217.105 171.028V171.295H233.475V176H209.541ZM247.183 171.028L246.917 172.964C246.739 174.384 246.437 175.864 246.011 177.403C245.597 178.953 245.165 180.392 244.715 181.717C244.277 183.043 243.916 184.097 243.632 184.878H239.868C240.021 184.144 240.234 183.15 240.507 181.895C240.779 180.652 241.045 179.261 241.306 177.722C241.566 176.183 241.761 174.615 241.892 173.017L242.069 171.028H247.183ZM266.492 168.898V164.459L282.206 139.636H285.704V146.17H283.484L272.245 163.962V164.246H293.783V168.898H266.492ZM283.733 176V167.548L283.768 165.524V139.636H288.971V176H283.733ZM299.207 168.898V164.459L314.921 139.636H318.419V146.17H316.199L304.96 163.962V164.246H326.498V168.898H299.207ZM316.448 176V167.548L316.483 165.524V139.636H321.686V176H316.448Z" fill="white"/>
<circle cx="65" cy="75" r="25" transform="rotate(-90 65 75)" fill="#323232" stroke="white" stroke-width="10"/>
</g>
<defs>
<clipPath id="clip0_210_690">
<rect width="1620" height="1013" fill="white"/>
</clipPath>
</defs>
</svg>
