<svg width="742" height="181" viewBox="0 0 742 181" fill="none" xmlns="http://www.w3.org/2000/svg">
<circle cx="574" cy="166" r="15" fill="black"/>
<circle cx="624" cy="166" r="15" fill="black"/>
<line x1="457.465" y1="62" x2="457.465" y2="175" stroke="black" stroke-width="2"/>
<line x1="461.465" y1="62" x2="461.465" y2="175" stroke="black" stroke-width="2"/>
<line x1="465.465" y1="62" x2="465.465" y2="175" stroke="black" stroke-width="2"/>
<line x1="469.465" y1="62" x2="469.465" y2="175" stroke="black" stroke-width="2"/>
<line x1="473.465" y1="62" x2="473.465" y2="175" stroke="black" stroke-width="2"/>
<line x1="219.465" y1="62" x2="219.465" y2="175" stroke="black" stroke-width="2"/>
<line x1="223.465" y1="62" x2="223.465" y2="175" stroke="black" stroke-width="2"/>
<line x1="227.465" y1="62" x2="227.465" y2="175" stroke="black" stroke-width="2"/>
<line x1="231.465" y1="62" x2="231.465" y2="175" stroke="black" stroke-width="2"/>
<line x1="235.465" y1="62" x2="235.465" y2="175" stroke="black" stroke-width="2"/>
<line x1="645.947" y1="60.9321" x2="681.172" y2="26.1837" stroke="black" stroke-width="3"/>
<path d="M717.473 63.7672L717.462 63.725L717.449 63.6838C717.179 62.8746 716.839 62.1496 716.283 61.572C715.712 60.9789 714.994 60.624 714.118 60.4049C713.262 60.191 712.208 60.095 710.912 60.0475C709.612 60 708.003 60 706.019 60H706H480C478.895 60 478 60.8954 478 62V175C478 176.105 478.895 177 480 177H728.5C733.369 177 736.958 175.847 738.92 172.577C740.805 169.435 740.991 164.612 739.989 157.853L739.983 157.81L739.973 157.767L717.473 63.7672Z" fill="white" stroke="black" stroke-width="2"/>
<path d="M479 143C479 142.448 479.309 142 479.861 142C505.052 142 718.885 142 732.94 142C733.367 142 733.593 142.271 733.732 142.675L738.97 157.913C738.99 157.971 739.005 158.032 739.014 158.093C740.986 171.521 737.978 176 728.5 176H480C479.448 176 479 175.552 479 175V143Z" fill="#E3000F"/>
<path d="M479 137H732L733.357 142H479V137Z" fill="white"/>
<path d="M479 70H707C713.5 70 716 74.5 717 79L731 137H479V70Z" fill="#626262"/>
<path d="M479 70H707C713.5 70 716 74.5 717 79L718.21 84H479V70Z" fill="black"/>
<rect x="623" y="89" width="55" height="85" stroke="black" stroke-width="2"/>
<rect x="625" y="91" width="51" height="81" stroke="white" stroke-width="2"/>
<line x1="650.5" y1="89" x2="650.5" y2="174" stroke="black" stroke-width="3"/>
<circle cx="321" cy="166" r="15" fill="black"/>
<circle cx="371" cy="166" r="15" fill="black"/>
<rect x="240" y="60" width="213" height="117" rx="2" fill="white" stroke="black" stroke-width="2"/>
<rect x="241" y="137" width="211" height="5" fill="white"/>
<path d="M241 142H452V175C452 175.552 451.552 176 451 176H242C241.448 176 241 175.552 241 175V142Z" fill="#E3000F"/>
<rect x="241" y="70" width="211" height="67" fill="#626262"/>
<rect x="241" y="70" width="211" height="14" fill="black"/>
<rect x="375" y="89" width="55" height="85" stroke="black" stroke-width="2"/>
<rect x="377" y="91" width="51" height="81" stroke="white" stroke-width="2"/>
<line x1="402.5" y1="89" x2="402.5" y2="174" stroke="black" stroke-width="3"/>
<rect x="260" y="89" width="55" height="85" stroke="black" stroke-width="2"/>
<rect x="262" y="91" width="51" height="81" stroke="white" stroke-width="2"/>
<line x1="287.5" y1="89" x2="287.5" y2="174" stroke="black" stroke-width="3"/>
<rect x="322" y="89" width="46" height="45" rx="1" stroke="black" stroke-width="2"/>
<circle cx="82" cy="166" r="15" fill="black"/>
<circle cx="132" cy="166" r="15" fill="black"/>
<rect x="1" y="60" width="213" height="117" rx="2" fill="white" stroke="black" stroke-width="2"/>
<rect x="2" y="137" width="211" height="5" fill="white"/>
<path d="M2 142H213V175C213 175.552 212.552 176 212 176H3C2.44772 176 2 175.552 2 175V142Z" fill="#E3000F"/>
<rect x="2" y="70" width="211" height="67" fill="#626262"/>
<rect x="2" y="70" width="211" height="14" fill="black"/>
<rect x="136" y="89" width="55" height="85" stroke="black" stroke-width="2"/>
<rect x="138" y="91" width="51" height="81" stroke="white" stroke-width="2"/>
<line x1="163.5" y1="89" x2="163.5" y2="174" stroke="black" stroke-width="3"/>
<rect x="21" y="89" width="55" height="85" stroke="black" stroke-width="2"/>
<rect x="23" y="91" width="51" height="81" stroke="white" stroke-width="2"/>
<line x1="48.5" y1="89" x2="48.5" y2="174" stroke="black" stroke-width="3"/>
<rect x="83" y="89" width="46" height="45" rx="1" stroke="black" stroke-width="2"/>
<rect x="504" y="89" width="46" height="45" rx="1" stroke="black" stroke-width="2"/>
<rect x="567" y="89" width="46" height="45" rx="1" stroke="black" stroke-width="2"/>
<path d="M688 90C688 89.4477 688.448 89 689 89H714.414C714.879 89 715.282 89.3198 715.388 89.7721L725.452 132.772C725.598 133.4 725.122 134 724.478 134H689C688.448 134 688 133.552 688 133V90Z" stroke="black" stroke-width="2"/>
<line x1="685.705" y1="29.4039" x2="648.705" y2="2.4039" stroke="black"/>
<line x1="684.498" y1="29.865" x2="634.498" y2="0.865032" stroke="black" stroke-width="2"/>
<line x1="685.645" y1="28.7523" x2="659.384" y2="60.3198" stroke="black"/>
<g clip-path="url(#clip0_11_477)">
<path d="M487 172H594V147H487V172Z" fill="#E3000F"/>
<path d="M487.263 171.734H512.083V147.266H487.263V171.734Z" fill="white"/>
<path d="M495.548 164.848C495.479 164.848 495.424 164.793 495.424 164.724C495.424 164.684 495.443 164.648 495.472 164.625L497.994 162.771H491.369C491.299 162.771 491.243 162.716 491.243 162.648C491.243 162.606 491.264 162.568 491.297 162.545L494.762 160C494.785 159.979 494.816 159.964 494.85 159.964H497.538C498.14 159.986 498.461 160.051 498.647 160.172C498.872 160.323 498.939 160.494 498.981 160.607C499.28 161.428 499.667 164.04 499.686 164.168C499.705 164.04 500.09 161.428 500.39 160.607C500.434 160.494 500.498 160.323 500.725 160.172C500.91 160.051 501.232 159.986 501.835 159.964H508.423C508.492 159.964 508.549 160.02 508.549 160.089C508.549 160.131 508.526 160.169 508.492 160.191L502.208 164.823C502.187 164.838 502.161 164.848 502.134 164.848H495.548Z" fill="#240C4B"/>
<path d="M508.007 156.236C508.076 156.236 508.131 156.291 508.131 156.36C508.131 156.402 508.11 156.44 508.08 156.462L504.591 159.021C504.57 159.035 504.545 159.042 504.519 159.042H501.833C501.23 159.021 500.908 158.957 500.723 158.835C500.498 158.685 500.432 158.514 500.39 158.4C500.089 157.579 499.703 154.967 499.684 154.84C499.665 154.967 499.278 157.579 498.979 158.4C498.937 158.514 498.87 158.685 498.646 158.835C498.459 158.957 498.138 159.021 497.536 159.042L490.944 159.044C490.875 159.044 490.82 158.989 490.82 158.921C490.82 158.883 490.835 158.85 490.864 158.827L491.064 158.679L497.161 154.187C497.181 154.169 497.208 154.16 497.239 154.16H503.825C503.894 154.16 503.949 154.215 503.949 154.285C503.949 154.325 503.93 154.361 503.899 154.384L501.375 156.236H508.007Z" fill="#E3000F"/>
<path d="M550.937 159.53L549.89 159.561V157.669H550.927C551.53 157.669 551.814 158.058 551.814 158.565C551.814 159.131 551.497 159.511 550.937 159.53ZM552.828 160.233C553.463 159.96 553.789 159.325 553.789 158.438C553.789 157.258 552.935 156.234 551.328 156.234H548.097C548.064 156.234 548.011 156.225 548.011 156.322V159.511V162.68C548.011 162.779 548.011 162.769 548.097 162.769H549.807C549.881 162.769 549.89 162.758 549.89 162.68V160.856L551.095 160.837C551.095 160.837 551.856 161.949 552.205 162.574C552.3 162.748 552.342 162.769 552.426 162.769H554.275C554.391 162.769 554.424 162.699 554.296 162.505C553.693 161.597 553.093 160.632 552.828 160.233ZM547.143 161.394V162.633C547.143 162.75 547.132 162.769 547.027 162.769H542.263C542.159 162.769 542.147 162.75 542.147 162.633V156.333C542.147 156.246 542.136 156.236 542.242 156.236H546.964C547.058 156.236 547.069 156.246 547.069 156.362V157.543C547.069 157.621 547.037 157.669 546.964 157.669L543.975 157.64V158.732H546.899C546.995 158.732 547.006 158.751 547.006 158.869V160.039C547.006 160.155 546.995 160.176 546.899 160.176H543.975V161.297L547.027 161.269C547.143 161.269 547.143 161.269 547.143 161.394ZM587.824 156.352V162.819C587.824 162.819 587.812 162.993 587.696 162.916C586.123 161.823 583.662 159.736 583.662 159.736V162.682C583.662 162.769 583.662 162.769 583.567 162.769H581.992C581.918 162.769 581.887 162.672 581.887 162.672V156.137C581.887 156.137 581.95 156.041 582.004 156.069C583.493 157.055 586.049 159.24 586.049 159.24V156.352C586.049 156.246 586.049 156.236 586.133 156.236H587.717C587.824 156.236 587.824 156.352 587.824 156.352ZM534.543 161.394V162.633C534.543 162.75 534.533 162.769 534.427 162.769H529.665C529.558 162.769 529.546 162.75 529.546 162.633V156.333C529.546 156.246 529.537 156.236 529.642 156.236H534.364C534.459 156.236 534.47 156.246 534.47 156.362V157.543C534.47 157.621 534.438 157.669 534.364 157.669L531.375 157.64V158.732H534.301C534.394 158.732 534.406 158.751 534.406 158.869V160.039C534.406 160.155 534.394 160.176 534.301 160.176H531.375V161.297L534.427 161.269C534.543 161.269 534.543 161.269 534.543 161.394ZM581.018 161.394V162.633C581.018 162.75 581.007 162.769 580.902 162.769H576.138C576.033 162.769 576.022 162.75 576.022 162.633V156.333C576.022 156.246 576.01 156.236 576.117 156.236H580.839C580.932 156.236 580.944 156.246 580.944 156.362V157.543C580.944 157.621 580.911 157.669 580.839 157.669L577.848 157.64V158.732H580.774C580.87 158.732 580.881 158.751 580.881 158.869V160.039C580.881 160.155 580.87 160.176 580.774 160.176H577.848V161.297L580.902 161.269C581.018 161.269 581.018 161.269 581.018 161.394ZM575.151 156.324V159.511V162.682C575.151 162.76 575.139 162.769 575.044 162.769H573.313C573.218 162.769 573.218 162.779 573.218 162.682V159.511V156.324C573.218 156.227 573.218 156.236 573.313 156.236H575.044C575.139 156.236 575.151 156.246 575.151 156.324ZM572.346 156.352V162.819C572.346 162.819 572.335 162.993 572.219 162.916C570.646 161.823 568.185 159.736 568.185 159.736V162.682C568.185 162.769 568.185 162.769 568.09 162.769H566.515C566.443 162.769 566.41 162.672 566.41 162.672V156.137C566.41 156.137 566.473 156.041 566.527 156.069C568.015 157.055 570.572 159.24 570.572 159.24V156.352C570.572 156.246 570.572 156.236 570.656 156.236H572.24C572.346 156.236 572.346 156.352 572.346 156.352ZM565.539 156.324V159.511V162.682C565.539 162.76 565.528 162.769 565.434 162.769H563.701C563.606 162.769 563.606 162.779 563.606 162.682V159.511V156.324C563.606 156.227 563.606 156.236 563.701 156.236H565.434C565.528 156.236 565.539 156.246 565.539 156.324ZM562.735 161.288V162.682C562.735 162.76 562.735 162.769 562.651 162.769H557.981C557.887 162.769 557.887 162.779 557.887 162.682V159.511V156.324C557.887 156.227 557.887 156.236 557.981 156.236H559.672C559.755 156.236 559.767 156.246 559.767 156.324V161.219L562.64 161.189C562.725 161.189 562.735 161.21 562.735 161.288ZM526.058 156.204H528.672L520.145 162.836V160.539V160.313L519.962 160.45L516.822 162.84V157.83L518.928 156.204V159.036V159.268L519.111 159.124L522.308 156.611V158.873V159.101L522.489 158.96L526.058 156.204ZM528.672 157.477V157.76V159.525V162.68C528.672 162.758 528.66 162.767 528.561 162.767H526.929C526.832 162.767 526.832 162.777 526.832 162.68L526.826 158.74L528.561 157.389C528.66 157.389 528.672 157.399 528.672 157.477ZM541.261 156.356V162.815C541.261 162.815 541.251 162.992 541.137 162.914C539.585 161.823 537.162 159.737 537.162 159.737V162.68C537.162 162.767 537.162 162.767 537.069 162.767H535.517C535.445 162.767 535.414 162.671 535.414 162.671V156.143C535.414 156.143 535.475 156.044 535.528 156.075C536.994 157.059 539.513 159.24 539.513 159.24V156.356C539.513 156.25 539.513 156.24 539.596 156.24H541.158C541.261 156.24 541.261 156.356 541.261 156.356Z" fill="white"/>
</g>
<defs>
<clipPath id="clip0_11_477">
<rect width="107" height="25" fill="white" transform="translate(487 147)"/>
</clipPath>
</defs>
</svg>
