<svg width="514" height="179" viewBox="0 0 514 179" fill="none" xmlns="http://www.w3.org/2000/svg">
<g clip-path="url(#clip0_201_360)">
<mask id="mask0_201_360" style="mask-type:luminance" maskUnits="userSpaceOnUse" x="0" y="0" width="514" height="179">
<path d="M514 0H0V179H514V0Z" fill="white"/>
</mask>
<g mask="url(#mask0_201_360)">
<path d="M336.967 179.001C345.3 179.001 352.055 172.247 352.055 163.916C352.055 155.585 345.3 148.832 336.967 148.832C328.634 148.832 321.879 155.585 321.879 163.916C321.879 172.247 328.634 179.001 336.967 179.001Z" fill="black"/>
<path d="M387.26 179.001C395.593 179.001 402.348 172.247 402.348 163.916C402.348 155.585 395.593 148.832 387.26 148.832C378.927 148.832 372.172 155.585 372.172 163.916C372.172 172.247 378.927 179.001 387.26 179.001Z" fill="black"/>
<path d="M435.918 58.0003L460.716 33.2031" stroke="black" stroke-width="3"/>
<path d="M219.748 59.332V172.967" stroke="black" stroke-width="2"/>
<path d="M223.771 59.332V172.967" stroke="black" stroke-width="2"/>
<path d="M227.794 59.332V172.967" stroke="black" stroke-width="2"/>
<path d="M231.818 59.332V172.967" stroke="black" stroke-width="2"/>
<path d="M235.842 59.332V172.967" stroke="black" stroke-width="2"/>
<path d="M481.282 61.1087L481.271 61.0662L481.258 61.0248C480.986 60.2111 480.644 59.482 480.085 58.9011C479.511 58.3047 478.788 57.9478 477.907 57.7275C477.046 57.5124 475.986 57.4158 474.682 57.3681C473.375 57.3203 471.756 57.3203 469.761 57.3203H469.742H242.415C241.303 57.3203 240.403 58.2207 240.403 59.3315V172.966C240.403 174.078 241.303 174.978 242.415 174.978H492.374C497.271 174.978 500.881 173.818 502.855 170.53C504.751 167.37 504.938 162.52 503.93 155.723L503.924 155.68L503.914 155.637L481.282 61.1087Z" fill="white" stroke="black" stroke-width="2"/>
<path d="M241.409 140.787C241.409 140.232 241.72 139.781 242.275 139.781C267.614 139.781 482.702 139.781 496.84 139.781C497.269 139.781 497.497 140.054 497.636 140.46L502.905 155.784C502.925 155.842 502.94 155.903 502.949 155.965C504.933 169.468 501.907 173.972 492.374 173.972H242.415C241.86 173.972 241.409 173.522 241.409 172.967V140.787Z" fill="#E3000F"/>
<path d="M241.409 134.753H495.894L497.259 139.781H241.409V134.753Z" fill="white"/>
<path d="M241.409 67.377H470.747C477.286 67.377 479.8 71.9022 480.806 76.4275L494.888 134.753H241.409V67.377Z" fill="#626262"/>
<path d="M241.409 67.377H470.747C477.286 67.377 479.8 71.9022 480.806 76.4275L482.023 81.4556H241.409V67.377Z" fill="black"/>
<path d="M445.577 86.4834H390.254V171.961H445.577V86.4834Z" stroke="black" stroke-width="2"/>
<path d="M443.566 88.4951H392.266V169.95H443.566V88.4951Z" stroke="white" stroke-width="2"/>
<path d="M417.916 86.4834V171.961" stroke="black" stroke-width="3"/>
<path d="M82.4814 179.001C90.8143 179.001 97.5694 172.247 97.5694 163.916C97.5694 155.585 90.8143 148.832 82.4814 148.832C74.1485 148.832 67.3933 155.585 67.3933 163.916C67.3933 172.247 74.1485 179.001 82.4814 179.001Z" fill="black"/>
<path d="M132.775 179.001C141.108 179.001 147.863 172.247 147.863 163.916C147.863 155.585 141.108 148.832 132.775 148.832C124.442 148.832 117.687 155.585 117.687 163.916C117.687 172.247 124.442 179.001 132.775 179.001Z" fill="black"/>
<path d="M213.245 57.3203H3.0176C1.90655 57.3203 1.00586 58.2208 1.00586 59.3315V172.966C1.00586 174.077 1.90655 174.978 3.0176 174.978H213.245C214.356 174.978 215.256 174.077 215.256 172.966V59.3315C215.256 58.2208 214.356 57.3203 213.245 57.3203Z" fill="white" stroke="black" stroke-width="2"/>
<path d="M214.25 134.753H2.01172V139.781H214.25V134.753Z" fill="white"/>
<path d="M2.01172 139.781H214.25V172.967C214.25 173.522 213.8 173.972 213.245 173.972H3.01759C2.46207 173.972 2.01172 173.522 2.01172 172.967V139.781Z" fill="#E3000F"/>
<path d="M214.25 67.377H2.01172V134.753H214.25V67.377Z" fill="#626262"/>
<path d="M214.25 67.377H2.01172V81.4556H214.25V67.377Z" fill="black"/>
<path d="M192.121 86.4834H136.798V171.961H192.121V86.4834Z" stroke="black" stroke-width="2"/>
<path d="M190.109 88.4951H138.81V169.95H190.109V88.4951Z" stroke="white" stroke-width="2"/>
<path d="M164.46 86.4834V171.961" stroke="black" stroke-width="3"/>
<path d="M76.4462 86.4834H21.1233V171.961H76.4462V86.4834Z" stroke="black" stroke-width="2"/>
<path d="M74.4344 88.4951H23.135V169.95H74.4344V88.4951Z" stroke="white" stroke-width="2"/>
<path d="M48.7847 86.4834V171.961" stroke="black" stroke-width="3"/>
<path d="M128.751 86.4834H84.4932C83.9376 86.4834 83.4873 86.9336 83.4873 87.489V130.731C83.4873 131.286 83.9376 131.736 84.4932 131.736H128.751C129.307 131.736 129.757 131.286 129.757 130.731V87.489C129.757 86.9336 129.307 86.4834 128.751 86.4834Z" stroke="black" stroke-width="2"/>
<path d="M311.822 86.4834H268.539C267.996 86.4834 267.556 86.9336 267.556 87.489V130.731C267.556 131.286 267.996 131.736 268.539 131.736H311.822C312.365 131.736 312.806 131.286 312.806 130.731V87.489C312.806 86.9336 312.365 86.4834 311.822 86.4834Z" stroke="black" stroke-width="2"/>
<path d="M373.192 86.4834H329.909C329.366 86.4834 328.926 86.9336 328.926 87.489V130.731C328.926 131.286 329.366 131.736 329.909 131.736H373.192C373.735 131.736 374.176 131.286 374.176 130.731V87.489C374.176 86.9336 373.735 86.4834 373.192 86.4834Z" stroke="black" stroke-width="2"/>
<path d="M452.642 86.4834H478.205C478.673 86.4834 479.078 86.805 479.185 87.2598L489.308 130.501C489.455 131.133 488.976 131.736 488.328 131.736H452.642C452.087 131.736 451.636 131.286 451.636 130.731V87.489C451.636 86.9336 452.087 86.4834 452.642 86.4834Z" stroke="black" stroke-width="2"/>
<path d="M464.419 35.6597L443.266 15.7529" stroke="black"/>
<path d="M463.471 35.9578L435 16.2119" stroke="black" stroke-width="2"/>
<path d="M464.389 35.04L445.103 58.0004" stroke="black"/>
</g>
<rect x="250" y="149.883" width="24.3188" height="5.6948" fill="white"/>
<rect x="250" y="158.118" width="24.3188" height="5.6948" fill="white"/>
<path d="M286.034 162.395L283.078 152.233H285.791L287.323 158.892H287.407L289.158 152.233H291.37L293.12 158.906H293.205L294.742 152.233H297.45L294.499 162.395H292.134L290.304 156.232H290.224L288.394 162.395H286.034Z" fill="white"/>
<path d="M300.919 152.233V162.395H298.464V152.233H300.919Z" fill="white"/>
<path d="M302.46 162.395V152.233H309.542V154.227H304.915V156.311H309.18V158.311H304.915V160.4H309.542V162.395H302.46Z" fill="white"/>
<path d="M319.723 152.233V162.395H317.64L313.598 156.53H313.534V162.395H311.079V152.233H313.192L317.189 158.088H317.273V152.233H319.723Z" fill="white"/>
<path d="M321.267 162.395V152.233H328.349V154.227H323.722V156.311H327.987V158.311H323.722V160.4H328.349V162.395H321.267Z" fill="white"/>
<path d="M329.886 162.395V152.233H334.081C334.842 152.233 335.498 152.37 336.05 152.645C336.606 152.916 337.034 153.306 337.335 153.816C337.636 154.322 337.786 154.922 337.786 155.617C337.786 156.321 337.632 156.92 337.325 157.413C337.017 157.902 336.581 158.276 336.016 158.534C335.45 158.789 334.781 158.916 334.007 158.916H331.354V156.981H333.551C333.921 156.981 334.23 156.933 334.478 156.837C334.729 156.738 334.92 156.589 335.049 156.391C335.177 156.189 335.242 155.931 335.242 155.617C335.242 155.302 335.177 155.043 335.049 154.838C334.92 154.629 334.729 154.474 334.478 154.371C334.227 154.265 333.918 154.212 333.551 154.212H332.341V162.395H329.886ZM335.604 157.75L338.133 162.395H335.455L332.976 157.75H335.604Z" fill="white"/>
<path d="M342.133 162.395V152.233H344.588V160.4H348.813V162.395H342.133Z" fill="white"/>
<path d="M359.275 157.314C359.275 158.432 359.06 159.379 358.63 160.157C358.2 160.934 357.618 161.525 356.884 161.928C356.154 162.332 355.334 162.534 354.424 162.534C353.512 162.534 352.69 162.33 351.96 161.923C351.229 161.516 350.649 160.926 350.219 160.152C349.792 159.374 349.579 158.428 349.579 157.314C349.579 156.196 349.792 155.248 350.219 154.47C350.649 153.693 351.229 153.103 351.96 152.699C352.69 152.296 353.512 152.094 354.424 152.094C355.334 152.094 356.154 152.296 356.884 152.699C357.618 153.103 358.2 153.693 358.63 154.47C359.06 155.248 359.275 156.196 359.275 157.314ZM356.765 157.314C356.765 156.652 356.671 156.093 356.482 155.637C356.297 155.18 356.03 154.834 355.679 154.599C355.332 154.365 354.914 154.247 354.424 154.247C353.938 154.247 353.52 154.365 353.17 154.599C352.819 154.834 352.55 155.18 352.361 155.637C352.176 156.093 352.084 156.652 352.084 157.314C352.084 157.975 352.176 158.534 352.361 158.991C352.55 159.447 352.819 159.793 353.17 160.028C353.52 160.263 353.938 160.38 354.424 160.38C354.914 160.38 355.332 160.263 355.679 160.028C356.03 159.793 356.297 159.447 356.482 158.991C356.671 158.534 356.765 157.975 356.765 157.314Z" fill="white"/>
<path d="M367.373 155.552C367.317 155.344 367.234 155.16 367.125 155.001C367.016 154.839 366.882 154.702 366.723 154.59C366.565 154.477 366.383 154.393 366.178 154.337C365.973 154.277 365.748 154.247 365.503 154.247C365.011 154.247 364.584 154.366 364.224 154.604C363.867 154.843 363.591 155.19 363.396 155.646C363.201 156.1 363.103 156.65 363.103 157.299C363.103 157.95 363.197 158.506 363.386 158.966C363.574 159.426 363.847 159.776 364.204 160.018C364.561 160.259 364.994 160.38 365.503 160.38C365.953 160.38 366.333 160.307 366.644 160.162C366.958 160.013 367.196 159.803 367.358 159.532C367.52 159.26 367.601 158.941 367.601 158.574L368.057 158.629H365.588V156.837H369.967V158.182C369.967 159.092 369.773 159.871 369.387 160.519C369.003 161.167 368.474 161.665 367.8 162.013C367.128 162.36 366.356 162.534 365.484 162.534C364.515 162.534 363.664 162.323 362.93 161.903C362.196 161.483 361.624 160.885 361.214 160.107C360.804 159.327 360.599 158.4 360.599 157.329C360.599 156.495 360.723 155.756 360.971 155.111C361.219 154.462 361.564 153.913 362.007 153.463C362.453 153.013 362.969 152.673 363.554 152.441C364.143 152.21 364.776 152.094 365.454 152.094C366.042 152.094 366.589 152.178 367.095 152.347C367.604 152.516 368.054 152.754 368.444 153.061C368.838 153.369 369.157 153.734 369.401 154.158C369.646 154.581 369.798 155.046 369.858 155.552H367.373Z" fill="white"/>
<path d="M381 157.314C381 158.432 380.785 159.379 380.355 160.157C379.925 160.934 379.343 161.525 378.61 161.928C377.879 162.332 377.059 162.534 376.15 162.534C375.237 162.534 374.416 162.33 373.685 161.923C372.954 161.516 372.374 160.926 371.944 160.152C371.518 159.374 371.305 158.428 371.305 157.314C371.305 156.196 371.518 155.248 371.944 154.47C372.374 153.693 372.954 153.103 373.685 152.699C374.416 152.296 375.237 152.094 376.15 152.094C377.059 152.094 377.879 152.296 378.61 152.699C379.343 153.103 379.925 153.693 380.355 154.47C380.785 155.248 381 156.196 381 157.314ZM378.49 157.314C378.49 156.652 378.396 156.093 378.208 155.637C378.023 155.18 377.755 154.834 377.404 154.599C377.057 154.365 376.639 154.247 376.15 154.247C375.664 154.247 375.245 154.365 374.895 154.599C374.545 154.834 374.275 155.18 374.087 155.637C373.902 156.093 373.809 156.652 373.809 157.314C373.809 157.975 373.902 158.534 374.087 158.991C374.275 159.447 374.545 159.793 374.895 160.028C375.245 160.263 375.664 160.38 376.15 160.38C376.639 160.38 377.057 160.263 377.404 160.028C377.755 159.793 378.023 159.447 378.208 158.991C378.396 158.534 378.49 157.975 378.49 157.314Z" fill="white"/>
</g>
<defs>
<clipPath id="clip0_201_360">
<rect width="514" height="179" fill="white"/>
</clipPath>
</defs>
</svg>
