<svg width="1620" height="1013" viewBox="0 0 1620 1013" fill="none" xmlns="http://www.w3.org/2000/svg">
<g clip-path="url(#clip0_222_432)">
<rect width="1620" height="1013" fill="white"/>
<rect width="1474" height="814" fill="black"/>
<rect width="155" height="815" transform="translate(1465)" fill="#363636"/>
<path d="M1542.03 431.651C1544.72 431.672 1547.4 432.183 1550.09 433.185C1552.77 434.186 1555.22 435.848 1557.44 438.17C1559.65 440.472 1561.43 443.614 1562.77 447.599C1564.12 451.583 1564.79 456.58 1564.79 462.588C1564.79 468.405 1564.23 473.572 1563.13 478.089C1562.04 482.585 1560.46 486.377 1558.4 489.467C1556.35 492.556 1553.86 494.9 1550.92 496.498C1548 498.096 1544.7 498.895 1541.01 498.895C1537.35 498.895 1534.07 498.17 1531.2 496.722C1528.34 495.251 1526 493.217 1524.17 490.617C1522.36 487.996 1521.19 484.96 1520.68 481.509H1528.48C1529.18 484.513 1530.58 486.995 1532.67 488.955C1534.78 490.894 1537.56 491.864 1541.01 491.864C1546.06 491.864 1550.04 489.658 1552.96 485.248C1555.9 480.837 1557.37 474.605 1557.37 466.551H1556.86C1555.67 468.341 1554.25 469.886 1552.61 471.185C1550.97 472.485 1549.15 473.487 1547.15 474.19C1545.14 474.893 1543.01 475.244 1540.75 475.244C1537 475.244 1533.56 474.317 1530.43 472.464C1527.32 470.589 1524.83 468.021 1522.95 464.761C1521.1 461.48 1520.17 457.73 1520.17 453.511C1520.17 449.506 1521.07 445.841 1522.86 442.517C1524.67 439.172 1527.2 436.509 1530.46 434.527C1533.74 432.545 1537.6 431.587 1542.03 431.651ZM1542.03 438.682C1539.35 438.682 1536.93 439.353 1534.78 440.695C1532.65 442.016 1530.95 443.806 1529.7 446.065C1528.46 448.302 1527.84 450.784 1527.84 453.511C1527.84 456.239 1528.44 458.721 1529.63 460.958C1530.85 463.174 1532.5 464.942 1534.59 466.263C1536.7 467.563 1539.09 468.213 1541.78 468.213C1543.8 468.213 1545.69 467.819 1547.43 467.031C1549.18 466.221 1550.7 465.124 1552 463.739C1553.33 462.332 1554.36 460.745 1555.1 458.977C1555.85 457.187 1556.22 455.322 1556.22 453.384C1556.22 450.827 1555.61 448.43 1554.37 446.192C1553.15 443.955 1551.47 442.144 1549.32 440.759C1547.19 439.374 1544.76 438.682 1542.03 438.682Z" fill="white"/>
<rect y="814" width="1620" height="199" fill="#E3000F"/>
<circle cx="126" cy="869.383" r="25" transform="rotate(-90 126 869.383)" fill="#323232" stroke="white" stroke-width="10"/>
<path d="M233.379 941.636H238.884V965.553C238.884 968.098 238.286 970.353 237.09 972.318C235.895 974.271 234.214 975.81 232.048 976.935C229.881 978.047 227.342 978.604 224.43 978.604C221.53 978.604 218.997 978.047 216.831 976.935C214.665 975.81 212.984 974.271 211.788 972.318C210.593 970.353 209.995 968.098 209.995 965.553V941.636H215.482V965.109C215.482 966.755 215.843 968.217 216.565 969.495C217.299 970.773 218.334 971.78 219.672 972.513C221.009 973.236 222.596 973.597 224.43 973.597C226.277 973.597 227.869 973.236 229.207 972.513C230.556 971.78 231.586 970.773 232.296 969.495C233.018 968.217 233.379 966.755 233.379 965.109V941.636ZM259.058 978.497C257.437 978.473 255.839 978.178 254.264 977.609C252.702 977.041 251.281 976.094 250.003 974.768C248.725 973.443 247.701 971.661 246.931 969.424C246.174 967.187 245.795 964.393 245.795 961.043C245.795 957.871 246.109 955.054 246.736 952.592C247.375 950.129 248.293 948.052 249.488 946.359C250.684 944.655 252.128 943.359 253.82 942.471C255.513 941.583 257.413 941.139 259.52 941.139C261.686 941.139 263.61 941.565 265.291 942.418C266.972 943.27 268.333 944.448 269.374 945.951C270.428 947.454 271.097 949.165 271.381 951.082H265.965C265.598 949.567 264.87 948.33 263.781 947.371C262.692 946.413 261.272 945.933 259.52 945.933C256.857 945.933 254.779 947.093 253.288 949.413C251.808 951.733 251.062 954.959 251.051 959.09H251.317C251.944 958.06 252.714 957.184 253.625 956.462C254.548 955.728 255.578 955.166 256.715 954.776C257.863 954.373 259.07 954.172 260.337 954.172C262.444 954.172 264.35 954.687 266.054 955.717C267.771 956.735 269.138 958.143 270.156 959.942C271.174 961.742 271.683 963.801 271.683 966.121C271.683 968.442 271.156 970.543 270.102 972.425C269.061 974.307 267.593 975.798 265.699 976.899C263.805 977.988 261.592 978.521 259.058 978.497ZM259.041 973.881C260.437 973.881 261.686 973.537 262.787 972.851C263.888 972.164 264.758 971.241 265.397 970.081C266.036 968.921 266.356 967.625 266.356 966.192C266.356 964.796 266.042 963.523 265.415 962.375C264.799 961.227 263.947 960.315 262.858 959.641C261.781 958.966 260.55 958.629 259.165 958.629C258.111 958.629 257.135 958.83 256.235 959.232C255.347 959.635 254.566 960.191 253.892 960.901C253.217 961.612 252.684 962.428 252.294 963.352C251.915 964.263 251.725 965.228 251.725 966.246C251.725 967.607 252.039 968.868 252.666 970.028C253.306 971.188 254.176 972.123 255.276 972.833C256.389 973.531 257.644 973.881 259.041 973.881ZM283.468 973.028L283.202 974.964C283.024 976.384 282.722 977.864 282.296 979.403C281.882 980.953 281.45 982.392 281 983.717C280.562 985.043 280.201 986.097 279.917 986.878H276.153C276.307 986.144 276.52 985.15 276.792 983.895C277.064 982.652 277.33 981.261 277.591 979.722C277.851 978.183 278.047 976.615 278.177 975.017L278.354 973.028H283.468ZM303.541 978V974.023L315.846 961.274C317.159 959.889 318.243 958.676 319.095 957.634C319.959 956.581 320.604 955.58 321.03 954.634C321.456 953.687 321.669 952.68 321.669 951.615C321.669 950.408 321.385 949.366 320.817 948.49C320.249 947.602 319.474 946.922 318.491 946.448C317.509 945.963 316.402 945.72 315.171 945.72C313.869 945.72 312.732 945.987 311.762 946.519C310.791 947.052 310.045 947.804 309.525 948.774C309.004 949.745 308.743 950.881 308.743 952.183H303.505C303.505 949.97 304.014 948.034 305.032 946.377C306.05 944.72 307.447 943.436 309.223 942.524C310.998 941.601 313.016 941.139 315.277 941.139C317.562 941.139 319.574 941.595 321.314 942.506C323.066 943.406 324.433 944.637 325.416 946.2C326.398 947.75 326.89 949.502 326.89 951.455C326.89 952.805 326.635 954.125 326.126 955.415C325.629 956.705 324.759 958.143 323.516 959.729C322.273 961.304 320.545 963.215 318.331 965.464L311.105 973.028V973.295H327.475V978H303.541ZM341.183 973.028L340.917 974.964C340.739 976.384 340.437 977.864 340.011 979.403C339.597 980.953 339.165 982.392 338.715 983.717C338.277 985.043 337.916 986.097 337.632 986.878H333.868C334.021 986.144 334.234 985.15 334.507 983.895C334.779 982.652 335.045 981.261 335.306 979.722C335.566 978.183 335.761 976.615 335.892 975.017L336.069 973.028H341.183ZM360.492 970.898V966.459L376.206 941.636H379.704V948.17H377.484L366.245 965.962V966.246H387.783V970.898H360.492ZM377.733 978V969.548L377.768 967.524V941.636H382.971V978H377.733ZM393.207 970.898V966.459L408.921 941.636H412.419V948.17H410.199L398.96 965.962V966.246H420.498V970.898H393.207ZM410.448 978V969.548L410.483 967.524V941.636H415.686V978H410.448Z" fill="white"/>
<path d="M330.809 370.273V443H322.287L282.656 385.898H281.946V443H273.139V370.273H281.662L321.434 427.517H322.145V370.273H330.809ZM363.347 444.278C359.89 444.278 356.753 443.627 353.936 442.325C351.119 441 348.882 439.094 347.224 436.608C345.567 434.098 344.739 431.068 344.739 427.517C344.739 424.392 345.354 421.859 346.585 419.918C347.816 417.953 349.462 416.414 351.521 415.301C353.581 414.188 355.854 413.36 358.339 412.815C360.849 412.247 363.37 411.797 365.903 411.466C369.218 411.04 371.905 410.72 373.964 410.507C376.048 410.27 377.563 409.88 378.51 409.335C379.481 408.791 379.966 407.844 379.966 406.494V406.21C379.966 402.706 379.007 399.984 377.089 398.043C375.196 396.101 372.319 395.131 368.46 395.131C364.459 395.131 361.322 396.007 359.05 397.759C356.777 399.51 355.179 401.381 354.256 403.369L346.301 400.528C347.722 397.214 349.616 394.634 351.983 392.787C354.374 390.917 356.978 389.615 359.795 388.881C362.636 388.123 365.43 387.744 368.176 387.744C369.928 387.744 371.94 387.957 374.213 388.384C376.509 388.786 378.723 389.626 380.854 390.905C383.008 392.183 384.795 394.113 386.216 396.693C387.636 399.274 388.347 402.73 388.347 407.062V443H379.966V435.614H379.54C378.972 436.797 378.025 438.064 376.699 439.413C375.373 440.763 373.609 441.911 371.408 442.858C369.206 443.805 366.519 444.278 363.347 444.278ZM364.625 436.75C367.939 436.75 370.733 436.099 373.006 434.797C375.302 433.495 377.03 431.814 378.19 429.754C379.374 427.695 379.966 425.528 379.966 423.256V415.585C379.611 416.011 378.83 416.402 377.622 416.757C376.438 417.089 375.065 417.384 373.503 417.645C371.964 417.882 370.461 418.095 368.993 418.284C367.549 418.45 366.377 418.592 365.477 418.71C363.299 418.994 361.263 419.456 359.369 420.095C357.499 420.711 355.984 421.646 354.824 422.901C353.688 424.132 353.119 425.812 353.119 427.943C353.119 430.855 354.196 433.057 356.351 434.548C358.529 436.016 361.287 436.75 364.625 436.75ZM425.802 444.136C420.689 444.136 416.285 442.929 412.592 440.514C408.899 438.099 406.058 434.773 404.069 430.536C402.081 426.298 401.086 421.456 401.086 416.011C401.086 410.472 402.104 405.583 404.14 401.345C406.2 397.084 409.065 393.758 412.734 391.366C416.427 388.952 420.736 387.744 425.66 387.744C429.495 387.744 432.952 388.455 436.029 389.875C439.107 391.295 441.628 393.284 443.593 395.841C445.558 398.398 446.778 401.381 447.251 404.79H438.87C438.231 402.304 436.811 400.102 434.609 398.185C432.431 396.243 429.495 395.273 425.802 395.273C422.535 395.273 419.671 396.125 417.208 397.83C414.77 399.51 412.864 401.89 411.491 404.967C410.142 408.021 409.467 411.608 409.467 415.727C409.467 419.941 410.13 423.611 411.456 426.736C412.805 429.861 414.699 432.287 417.137 434.016C419.6 435.744 422.488 436.608 425.802 436.608C427.98 436.608 429.957 436.229 431.733 435.472C433.508 434.714 435.011 433.625 436.243 432.205C437.474 430.784 438.35 429.08 438.87 427.091H447.251C446.778 430.311 445.606 433.211 443.735 435.791C441.889 438.348 439.439 440.384 436.385 441.899C433.354 443.391 429.827 444.136 425.802 444.136ZM467.883 410.188V443H459.502V370.273H467.883V396.977H468.593C469.872 394.16 471.789 391.923 474.346 390.266C476.927 388.585 480.359 387.744 484.645 387.744C488.361 387.744 491.617 388.49 494.41 389.982C497.204 391.449 499.37 393.71 500.909 396.764C502.471 399.795 503.252 403.653 503.252 408.341V443H494.872V408.909C494.872 404.577 493.747 401.227 491.498 398.859C489.273 396.468 486.183 395.273 482.23 395.273C479.484 395.273 477.021 395.853 474.843 397.013C472.689 398.173 470.984 399.866 469.73 402.091C468.499 404.316 467.883 407.015 467.883 410.188ZM518.585 443V388.455H526.681V396.693H527.249C528.244 393.994 530.043 391.804 532.647 390.124C535.251 388.443 538.187 387.602 541.454 387.602C542.069 387.602 542.839 387.614 543.762 387.638C544.685 387.661 545.384 387.697 545.857 387.744V396.267C545.573 396.196 544.922 396.089 543.904 395.947C542.91 395.782 541.856 395.699 540.744 395.699C538.092 395.699 535.725 396.255 533.641 397.368C531.582 398.457 529.948 399.972 528.741 401.913C527.557 403.831 526.965 406.021 526.965 408.483V443H518.585ZM555.792 443V388.455H564.172V443H555.792ZM560.053 379.364C558.419 379.364 557.011 378.807 555.827 377.695C554.667 376.582 554.087 375.244 554.087 373.682C554.087 372.119 554.667 370.782 555.827 369.669C557.011 368.556 558.419 368 560.053 368C561.686 368 563.083 368.556 564.243 369.669C565.427 370.782 566.019 372.119 566.019 373.682C566.019 375.244 565.427 376.582 564.243 377.695C563.083 378.807 561.686 379.364 560.053 379.364ZM601.681 444.136C596.567 444.136 592.164 442.929 588.471 440.514C584.778 438.099 581.937 434.773 579.948 430.536C577.96 426.298 576.965 421.456 576.965 416.011C576.965 410.472 577.983 405.583 580.019 401.345C582.079 397.084 584.943 393.758 588.613 391.366C592.306 388.952 596.615 387.744 601.539 387.744C605.374 387.744 608.831 388.455 611.908 389.875C614.986 391.295 617.507 393.284 619.472 395.841C621.437 398.398 622.656 401.381 623.13 404.79H614.749C614.11 402.304 612.69 400.102 610.488 398.185C608.31 396.243 605.374 395.273 601.681 395.273C598.414 395.273 595.549 396.125 593.087 397.83C590.649 399.51 588.743 401.89 587.37 404.967C586.021 408.021 585.346 411.608 585.346 415.727C585.346 419.941 586.009 423.611 587.335 426.736C588.684 429.861 590.578 432.287 593.016 434.016C595.478 435.744 598.367 436.608 601.681 436.608C603.859 436.608 605.836 436.229 607.612 435.472C609.387 434.714 610.89 433.625 612.121 432.205C613.353 430.784 614.228 429.08 614.749 427.091H623.13C622.656 430.311 621.485 433.211 619.614 435.791C617.768 438.348 615.317 440.384 612.263 441.899C609.233 443.391 605.706 444.136 601.681 444.136ZM643.762 410.188V443H635.381V370.273H643.762V396.977H644.472C645.751 394.16 647.668 391.923 650.225 390.266C652.806 388.585 656.238 387.744 660.523 387.744C664.24 387.744 667.496 388.49 670.289 389.982C673.083 391.449 675.249 393.71 676.788 396.764C678.35 399.795 679.131 403.653 679.131 408.341V443H670.751V408.909C670.751 404.577 669.626 401.227 667.377 398.859C665.152 396.468 662.062 395.273 658.109 395.273C655.362 395.273 652.9 395.853 650.722 397.013C648.568 398.173 646.863 399.866 645.609 402.091C644.378 404.316 643.762 407.015 643.762 410.188ZM718.185 388.455V395.557H689.918V388.455H718.185ZM698.157 375.386H706.537V427.375C706.537 429.742 706.881 431.518 707.567 432.702C708.277 433.862 709.177 434.643 710.266 435.045C711.379 435.424 712.551 435.614 713.782 435.614C714.705 435.614 715.462 435.566 716.054 435.472C716.646 435.353 717.12 435.259 717.475 435.188L719.179 442.716C718.611 442.929 717.818 443.142 716.8 443.355C715.782 443.592 714.492 443.71 712.929 443.71C710.562 443.71 708.242 443.201 705.969 442.183C703.72 441.165 701.85 439.615 700.358 437.531C698.891 435.448 698.157 432.82 698.157 429.648V375.386ZM756.502 366.864L733.064 453.938H725.394L748.831 366.864H756.502ZM780.783 443L760.896 370.273H769.845L785.044 429.506H785.754L801.237 370.273H811.18L826.663 429.506H827.374L842.572 370.273H851.521L831.635 443H822.544L806.493 385.045H805.925L789.874 443H780.783ZM879.149 444.136C873.893 444.136 869.36 442.976 865.548 440.656C861.76 438.312 858.837 435.045 856.777 430.855C854.741 426.641 853.723 421.741 853.723 416.153C853.723 410.566 854.741 405.642 856.777 401.381C858.837 397.096 861.701 393.758 865.371 391.366C869.064 388.952 873.373 387.744 878.297 387.744C881.138 387.744 883.943 388.218 886.713 389.165C889.483 390.112 892.004 391.651 894.277 393.781C896.55 395.888 898.361 398.682 899.71 402.162C901.06 405.642 901.734 409.927 901.734 415.017V418.568H859.689V411.324H893.212C893.212 408.246 892.596 405.5 891.365 403.085C890.158 400.67 888.429 398.765 886.18 397.368C883.955 395.971 881.327 395.273 878.297 395.273C874.959 395.273 872.071 396.101 869.632 397.759C867.217 399.392 865.359 401.523 864.057 404.151C862.755 406.778 862.104 409.596 862.104 412.602V417.432C862.104 421.551 862.814 425.043 864.234 427.908C865.679 430.749 867.679 432.915 870.236 434.406C872.793 435.874 875.764 436.608 879.149 436.608C881.351 436.608 883.339 436.3 885.115 435.685C886.914 435.045 888.465 434.098 889.767 432.844C891.069 431.565 892.075 429.979 892.786 428.085L900.882 430.358C900.03 433.104 898.598 435.519 896.585 437.602C894.573 439.662 892.087 441.272 889.128 442.432C886.169 443.568 882.842 444.136 879.149 444.136ZM914.483 443V388.455H922.58V396.693H923.148C924.142 393.994 925.941 391.804 928.545 390.124C931.15 388.443 934.085 387.602 937.352 387.602C937.968 387.602 938.737 387.614 939.661 387.638C940.584 387.661 941.282 387.697 941.756 387.744V396.267C941.472 396.196 940.821 396.089 939.803 395.947C938.808 395.782 937.755 395.699 936.642 395.699C933.991 395.699 931.623 396.255 929.54 397.368C927.48 398.457 925.847 399.972 924.639 401.913C923.455 403.831 922.864 406.021 922.864 408.483V443H914.483ZM952.826 443V370.273H961.207V397.119H961.917C962.533 396.172 963.385 394.965 964.474 393.497C965.587 392.006 967.173 390.68 969.233 389.52C971.316 388.336 974.133 387.744 977.684 387.744C982.277 387.744 986.325 388.893 989.829 391.189C993.333 393.485 996.067 396.741 998.032 400.955C999.997 405.169 1000.98 410.14 1000.98 415.869C1000.98 421.646 999.997 426.653 998.032 430.891C996.067 435.105 993.345 438.372 989.865 440.692C986.385 442.988 982.372 444.136 977.826 444.136C974.323 444.136 971.517 443.556 969.41 442.396C967.303 441.213 965.681 439.875 964.545 438.384C963.409 436.868 962.533 435.614 961.917 434.619H960.923V443H952.826ZM961.065 415.727C961.065 419.847 961.669 423.481 962.876 426.629C964.083 429.754 965.847 432.205 968.167 433.98C970.487 435.732 973.328 436.608 976.69 436.608C980.194 436.608 983.118 435.685 985.461 433.838C987.829 431.968 989.604 429.458 990.788 426.31C991.995 423.137 992.599 419.61 992.599 415.727C992.599 411.892 992.007 408.436 990.824 405.358C989.663 402.257 987.9 399.806 985.532 398.007C983.189 396.184 980.241 395.273 976.69 395.273C973.281 395.273 970.416 396.137 968.096 397.865C965.776 399.57 964.024 401.961 962.841 405.038C961.657 408.092 961.065 411.655 961.065 415.727ZM1048.17 420.699V388.455H1056.56V443H1048.17V433.767H1047.61C1046.33 436.537 1044.34 438.893 1041.64 440.834C1038.94 442.751 1035.53 443.71 1031.41 443.71C1028 443.71 1024.97 442.964 1022.32 441.473C1019.67 439.958 1017.59 437.685 1016.07 434.655C1014.56 431.601 1013.8 427.754 1013.8 423.114V388.455H1022.18V422.545C1022.18 426.523 1023.29 429.695 1025.52 432.062C1027.77 434.43 1030.63 435.614 1034.11 435.614C1036.2 435.614 1038.31 435.081 1040.47 434.016C1042.65 432.95 1044.47 431.317 1045.94 429.115C1047.43 426.913 1048.17 424.108 1048.17 420.699ZM1080.29 410.188V443H1071.9V388.455H1080V396.977H1080.71C1081.99 394.207 1083.93 391.982 1086.54 390.301C1089.14 388.597 1092.5 387.744 1096.62 387.744C1100.31 387.744 1103.55 388.502 1106.32 390.017C1109.09 391.509 1111.24 393.781 1112.78 396.835C1114.32 399.866 1115.09 403.701 1115.09 408.341V443H1106.71V408.909C1106.71 404.624 1105.59 401.286 1103.37 398.895C1101.14 396.48 1098.09 395.273 1094.21 395.273C1091.53 395.273 1089.14 395.853 1087.03 397.013C1084.95 398.173 1083.3 399.866 1082.1 402.091C1080.89 404.316 1080.29 407.015 1080.29 410.188ZM1152.42 464.591C1148.37 464.591 1144.89 464.07 1141.98 463.028C1139.07 462.01 1136.64 460.661 1134.7 458.98C1132.78 457.323 1131.25 455.547 1130.12 453.653L1136.79 448.966C1137.55 449.96 1138.51 451.097 1139.67 452.375C1140.83 453.677 1142.42 454.802 1144.43 455.749C1146.46 456.719 1149.13 457.205 1152.42 457.205C1156.82 457.205 1160.46 456.139 1163.32 454.009C1166.18 451.878 1167.62 448.54 1167.62 443.994V432.915H1166.91C1166.29 433.909 1165.42 435.14 1164.28 436.608C1163.17 438.052 1161.56 439.342 1159.45 440.479C1157.37 441.591 1154.55 442.148 1151 442.148C1146.59 442.148 1142.64 441.106 1139.14 439.023C1135.66 436.939 1132.9 433.909 1130.86 429.932C1128.85 425.955 1127.84 421.125 1127.84 415.443C1127.84 409.856 1128.83 404.991 1130.79 400.848C1132.76 396.681 1135.49 393.462 1138.99 391.189C1142.5 388.893 1146.55 387.744 1151.14 387.744C1154.69 387.744 1157.51 388.336 1159.59 389.52C1161.7 390.68 1163.31 392.006 1164.42 393.497C1165.56 394.965 1166.43 396.172 1167.05 397.119H1167.9V388.455H1176V444.562C1176 449.25 1174.93 453.062 1172.8 455.997C1170.69 458.956 1167.85 461.123 1164.28 462.496C1160.73 463.893 1156.77 464.591 1152.42 464.591ZM1152.13 434.619C1155.5 434.619 1158.34 433.85 1160.66 432.311C1162.98 430.772 1164.74 428.559 1165.95 425.67C1167.16 422.782 1167.76 419.326 1167.76 415.301C1167.76 411.371 1167.17 407.903 1165.98 404.896C1164.8 401.89 1163.05 399.534 1160.73 397.83C1158.41 396.125 1155.54 395.273 1152.13 395.273C1148.58 395.273 1145.62 396.172 1143.26 397.972C1140.91 399.771 1139.15 402.186 1137.96 405.216C1136.8 408.246 1136.22 411.608 1136.22 415.301C1136.22 419.089 1136.82 422.439 1138 425.351C1139.21 428.239 1140.98 430.512 1143.33 432.169C1145.69 433.803 1148.63 434.619 1152.13 434.619Z" fill="#3E3E3E"/>
</g>
<defs>
<clipPath id="clip0_222_432">
<rect width="1620" height="1013" fill="white"/>
</clipPath>
</defs>
</svg>
